<?xml version="1.0" standalone="no"?>
<!DOCTYPE svg PUBLIC "-//W3C//DTD SVG 20010904//EN"
 "http://www.w3.org/TR/2001/REC-SVG-20010904/DTD/svg10.dtd">
<svg version="1.0" xmlns="http://www.w3.org/2000/svg"
 width="300.000000pt" height="300.000000pt" viewBox="0 0 300.000000 300.000000"
 preserveAspectRatio="xMidYMid meet">
<metadata>
Created by potrace 1.10, written by Peter Selinger 2001-2011
</metadata>
<g transform="translate(0.000000,300.000000) scale(0.050000,-0.050000)"
fill="#ffa757" stroke="none">
<path d="M2662 5929 c-34 -39 -77 -95 -96 -125 -18 -30 -50 -73 -71 -97 -22
-24 -35 -64 -31 -90 l7 -47 49 58 c28 31 78 85 112 120 35 34 79 91 99 126 20
35 43 60 50 55 8 -5 19 9 25 31 18 69 -74 50 -144 -31z"/>
<path d="M5587 5987 c7 -7 76 -13 153 -13 77 1 140 -7 140 -17 0 -10 18 -9 40
3 27 15 40 15 40 1 0 -12 9 -21 20 -21 11 0 20 14 20 30 0 25 -37 30 -213 30
-118 0 -208 -6 -200 -13z"/>
<path d="M2710 5551 c-146 -42 -248 -111 -165 -111 14 0 -43 -32 -125 -72
-332 -159 -387 -223 -497 -570 -163 -515 -280 -1170 -198 -1102 25 21 33 21
40 0 16 -45 93 247 102 384 7 111 93 336 93 245 0 -51 32 -22 88 80 32 58 74
123 94 146 21 22 50 76 66 120 22 59 30 67 31 33 2 -62 94 -53 153 15 29 33
65 50 109 51 46 1 74 16 97 50 18 26 23 43 11 35 -11 -7 -34 -4 -50 7 -24 16
-23 19 5 14 18 -3 34 1 34 9 2 23 134 135 158 135 12 0 27 9 34 20 7 12 -2 14
-24 7 -28 -11 -25 -1 14 43 l50 56 -70 -14 c-38 -7 -73 -22 -77 -33 -4 -11
-36 -32 -72 -47 -78 -33 -151 -92 -151 -123 0 -13 -18 -39 -40 -59 -85 -77
-12 70 86 175 29 30 44 55 34 55 -40 0 -167 -133 -224 -234 -58 -103 -87 -137
-63 -76 27 72 -37 21 -79 -63 -41 -80 -49 -87 -59 -50 -7 27 6 69 37 114 l48
71 -78 -63 c-44 -35 -88 -87 -99 -116 -11 -29 -35 -96 -54 -148 -44 -121 -58
-111 -27 18 43 176 107 259 354 456 68 54 119 102 114 107 -21 22 35 84 76 84
25 0 61 19 81 42 26 30 48 38 79 28 24 -7 73 -12 109 -11 36 1 65 -5 65 -13 0
-9 64 -13 142 -10 95 4 137 -1 128 -15 -26 -43 49 -86 131 -75 43 5 84 2 90
-8 6 -10 0 -18 -13 -18 -14 0 -19 -6 -12 -13 8 -7 5 -24 -7 -38 -15 -18 4 -30
73 -47 112 -29 134 -19 37 15 -121 45 -74 60 56 19 69 -22 197 -51 285 -66
120 -19 140 -26 80 -28 -94 -3 -60 -40 40 -43 54 -1 55 -3 17 -19 -23 -9 -76
-9 -120 1 -48 11 -80 10 -84 -2 -3 -11 -15 -14 -26 -7 -12 7 -18 -7 -14 -35 8
-57 -116 -62 -220 -8 -67 34 -143 41 -143 13 0 -9 31 -32 69 -50 39 -18 77
-44 85 -58 25 -39 234 -75 310 -53 36 11 105 19 152 19 60 0 82 7 72 23 -10
17 6 20 59 11 41 -6 73 -3 73 8 0 22 97 2 140 -30 16 -12 -1 17 -38 64 -37 47
-88 101 -115 120 -26 19 -89 95 -139 169 -184 272 -466 424 -826 445 -74 4
-161 13 -193 20 -107 24 -118 24 -199 1z m146 -79 c30 -15 128 -32 219 -37
191 -12 422 -108 605 -253 57 -45 120 -82 141 -82 20 0 43 -10 50 -22 26 -42
-211 14 -246 58 -14 18 -25 24 -25 15 0 -9 -27 14 -60 51 -33 38 -60 57 -60
43 0 -14 -9 -25 -20 -25 -11 0 -20 13 -20 28 0 39 -161 89 -316 100 -129 8
-198 32 -94 32 31 0 51 6 44 12 -10 11 -107 19 -348 30 -25 1 -59 -12 -77 -30
-17 -18 -44 -32 -59 -32 -15 0 -30 -7 -33 -16 -4 -9 -65 -35 -137 -58 -144
-47 -113 -8 38 46 51 19 109 53 129 76 75 84 181 110 269 64z m544 -265 l50
-28 -50 13 c-44 12 -47 10 -22 -19 15 -18 18 -33 7 -33 -24 0 -68 50 -56 63
10 9 -65 21 -154 25 -30 1 -55 9 -55 18 0 25 222 -7 280 -39z"/>
<path d="M2936 5128 c-52 -16 -100 -39 -108 -52 -10 -15 -4 -19 17 -11 17 7
68 23 113 37 57 17 132 72 77 57 -3 -1 -47 -15 -99 -31z"/>
<path d="M2870 5025 c-44 -18 -84 -38 -90 -45 -5 -6 -39 -32 -75 -57 -36 -25
-65 -55 -65 -67 0 -14 8 -14 25 -1 14 11 50 25 81 33 31 7 51 21 45 31 -6 10
27 19 74 20 162 4 345 31 343 51 -8 68 -206 89 -338 35z"/>
<path d="M4088 4724 c5 -9 -18 -13 -52 -8 -47 7 -58 3 -46 -17 12 -18 7 -22
-17 -13 -18 7 -33 4 -33 -7 0 -10 18 -19 40 -19 24 0 40 -13 40 -33 0 -19 6
-28 12 -21 7 7 26 -1 42 -17 16 -16 46 -29 67 -29 22 0 39 -14 39 -30 0 -17 9
-46 19 -65 10 -19 25 -79 31 -132 7 -53 18 -92 24 -86 62 62 100 -147 45 -248
-18 -34 44 -159 78 -159 26 0 48 128 23 137 -11 3 -20 24 -20 46 0 59 34 26
60 -58 61 -201 100 -207 77 -13 -16 131 -49 244 -113 388 -17 39 -33 84 -34
101 -2 18 -22 51 -46 75 -24 24 -44 54 -44 65 0 12 -8 16 -19 10 -10 -6 -24 7
-31 29 -7 22 -20 40 -29 40 -9 0 -21 18 -27 40 -6 24 -27 40 -53 40 -24 0 -39
-7 -33 -16z m32 -63 c0 -11 12 -15 27 -9 15 5 38 -4 52 -21 21 -26 21 -31 -4
-31 -37 0 -135 78 -100 79 14 1 25 -8 25 -18z"/>
<path d="M2760 4590 c0 -16 10 -30 21 -30 12 0 35 14 52 30 27 27 24 30 -22
30 -32 0 -51 -11 -51 -30z"/>
<path d="M2780 4441 c1 -17 18 -53 39 -81 28 -36 32 -56 17 -75 -12 -14 -18
-30 -13 -35 5 -5 25 18 44 51 28 47 29 59 8 59 -19 0 -25 18 -20 56 7 45 1 55
-33 55 -25 0 -42 -12 -42 -30z"/>
<path d="M1598 4342 c-29 -29 -69 -81 -90 -117 -20 -36 -44 -65 -52 -65 -9 0
-16 -9 -16 -20 0 -10 -50 -89 -110 -175 -61 -85 -119 -168 -130 -185 -11 -16
-42 -64 -70 -106 -27 -42 -50 -81 -50 -87 0 -6 -25 -44 -55 -84 -30 -40 -64
-88 -75 -106 -11 -18 -54 -82 -95 -142 -41 -60 -75 -119 -75 -132 0 -13 -8
-23 -17 -23 -9 0 -34 -31 -54 -70 -21 -38 -45 -70 -54 -70 -8 0 -15 -12 -15
-27 0 -15 -46 -90 -102 -165 -56 -76 -107 -151 -113 -168 -7 -16 -36 -61 -66
-100 -75 -97 -181 -301 -168 -322 15 -23 88 16 103 54 6 17 22 26 34 21 13 -5
25 10 27 34 2 23 17 52 34 65 17 12 31 29 31 36 0 16 74 124 128 186 21 25 47
39 58 32 11 -7 14 -2 7 10 -8 11 -5 26 5 33 10 6 14 27 9 46 -6 21 12 55 42
84 28 26 51 54 51 62 0 22 141 227 167 243 13 8 23 23 23 34 0 10 20 42 45 71
25 28 45 64 45 79 0 16 9 32 21 36 12 4 23 20 26 37 2 17 24 58 49 93 24 34
44 72 44 85 0 12 14 27 30 34 17 6 30 20 30 30 0 18 99 178 122 197 30 25 172
260 269 447 81 155 83 191 7 115z"/>
<path d="M2478 3952 c-4 -4 -58 -12 -120 -19 -61 -6 -126 -17 -145 -25 -19 -7
-62 -14 -97 -16 -38 -2 -71 -18 -84 -42 -12 -21 -43 -56 -68 -77 -26 -21 -55
-60 -65 -86 -13 -34 -34 -47 -73 -47 -96 0 -375 -65 -398 -93 -29 -35 -12
-123 36 -187 20 -28 46 -107 57 -176 26 -164 93 -340 140 -369 28 -18 32 -30
15 -50 -41 -49 20 -405 70 -405 18 0 22 52 17 193 l-7 193 77 -13 c311 -52
633 -28 780 57 48 29 87 45 87 36 1 -56 106 180 162 362 49 161 76 220 103
228 21 5 33 21 27 37 -6 15 2 27 19 27 16 0 29 -13 29 -28 0 -15 12 -32 27
-38 14 -6 46 -67 71 -137 66 -191 106 -281 149 -344 21 -32 45 -86 52 -120 12
-61 88 -90 149 -57 10 5 167 11 350 13 183 2 359 11 393 19 54 14 63 9 82 -41
l23 -57 2 64 c1 48 16 72 61 99 103 60 160 173 191 377 27 180 47 253 76 286
47 51 25 176 -33 193 -24 7 -124 18 -223 24 -169 12 -184 17 -244 78 -69 70
-223 132 -318 127 -32 -1 -122 4 -200 12 -96 10 -147 8 -156 -7 -7 -11 -28
-16 -46 -9 -26 10 -30 5 -18 -25 8 -21 8 -31 0 -24 -24 24 -66 -26 -53 -61 21
-58 49 -64 237 -51 198 14 292 -21 113 -41 -52 -6 -189 -30 -305 -54 -372 -74
-505 -84 -706 -49 -100 17 -293 31 -429 31 -278 0 -326 31 -113 74 113 23 486
39 548 24 39 -10 30 102 -11 134 -15 12 -23 28 -15 35 7 7 -2 13 -21 13 -18 0
-33 -10 -33 -21 0 -12 -20 -8 -44 10 -42 29 -99 40 -118 23z m1772 -271 c259
-28 280 -54 264 -342 -22 -432 -103 -497 -630 -505 -393 -6 -461 27 -582 285
-117 247 -122 448 -12 471 22 4 112 23 200 42 147 31 372 59 520 65 33 1 141
-6 240 -16z m-1696 -100 c220 -32 236 -47 235 -222 -1 -185 -81 -412 -171
-488 -171 -143 -814 -137 -921 9 -101 139 -151 577 -72 629 115 75 632 115
929 72z m732 -486 c28 -63 48 -115 43 -115 -13 0 -109 196 -109 223 0 34 8 21
66 -108z"/>
<path d="M4142 3641 c-14 -8 6 -23 46 -35 55 -17 67 -16 59 4 -12 32 -74 50
-105 31z"/>
<path d="M4153 3586 c-28 -28 -10 -66 32 -68 25 0 34 -6 20 -11 -14 -6 -25
-23 -25 -38 0 -16 -12 -23 -30 -16 -36 14 -40 -35 -6 -69 19 -19 14 -24 -20
-24 -24 0 -44 7 -44 16 0 17 -107 84 -133 83 -9 0 -1 -9 18 -21 54 -31 46 -86
-10 -69 -25 7 -120 26 -212 41 -165 28 -233 58 -212 92 24 38 -25 15 -87 -41
-35 -32 -55 -64 -44 -71 11 -7 -4 -35 -33 -65 l-53 -53 67 -55 c79 -66 78 -67
82 41 3 58 15 90 39 103 51 28 58 24 58 -29 0 -51 33 -72 113 -72 28 0 44 -9
37 -20 -7 -11 -3 -20 9 -20 11 0 22 11 22 25 1 14 10 4 20 -22 11 -25 26 -43
34 -39 283 142 302 146 412 80 41 -24 80 -44 85 -44 16 0 -6 186 -28 243 -12
29 -15 59 -8 67 8 7 5 12 -6 9 -41 -8 -72 2 -61 20 14 22 -18 46 -36 27z"/>
<path d="M4376 3506 c-5 -9 -7 -27 -5 -41 2 -14 5 -51 7 -82 3 -75 108 -82
118 -8 5 34 -1 42 -25 33 -19 -7 -31 -1 -32 15 0 36 -53 104 -63 83z"/>
<path d="M4200 3170 c0 -16 -14 -30 -31 -30 -17 0 -26 -9 -20 -19 7 -11 23
-17 37 -13 13 3 17 2 9 -3 -44 -24 31 -126 81 -110 41 14 30 161 -15 184 -51
28 -61 26 -61 -9z"/>
<path d="M1899 3476 c-1 -14 -4 -60 -7 -101 -5 -67 -1 -75 41 -75 53 0 63 35
16 53 -22 9 -28 28 -19 68 7 31 3 61 -9 68 -11 7 -22 2 -22 -13z"/>
<path d="M2190 3452 c-66 -28 -154 -111 -150 -141 2 -10 -36 -33 -83 -50 -54
-20 -89 -47 -94 -70 -7 -37 -5 -37 43 -6 55 37 92 31 264 -44 62 -27 131 -42
184 -38 47 3 86 -1 86 -9 1 -49 -2 -55 -19 -45 -10 6 -24 3 -31 -9 -14 -23 49
-27 84 -4 14 9 23 47 19 88 l-5 72 115 13 c170 19 183 86 34 170 -104 59 -277
47 -424 -29 -99 -51 -153 -63 -153 -33 0 25 60 73 150 120 88 46 74 56 -20 15z
m412 -179 c-51 -51 -59 -42 -47 56 l10 79 39 -48 c38 -46 37 -47 -2 -87z
m-262 -2 c0 -20 -12 -25 -35 -17 -31 11 -31 8 3 -31 23 -26 63 -44 100 -44 51
-2 55 -5 22 -18 -76 -29 -252 68 -219 121 19 31 129 21 129 -11z"/>
<path d="M1620 3354 c0 -61 122 -180 167 -163 55 22 37 79 -46 146 -94 75
-121 79 -121 17z"/>
<path d="M2545 3130 c0 -29 10 -48 23 -44 12 4 22 24 22 44 0 20 -10 40 -22
44 -13 4 -23 -15 -23 -44z"/>
<path d="M3302 3903 c-48 -68 -50 -133 -3 -133 18 0 36 31 46 79 23 111 10
128 -43 54z"/>
<path d="M4625 3200 c-33 -52 -31 -100 7 -213 68 -199 121 -152 90 80 -19 138
-60 194 -97 133z"/>
<path d="M4509 2841 c36 -68 40 -133 11 -151 -11 -7 -20 9 -20 38 0 59 -32 87
-43 37 -26 -116 8 -485 44 -485 54 0 62 25 65 201 1 87 9 159 16 159 19 0 40
-60 28 -80 -6 -10 -2 -23 10 -30 32 -20 23 -56 -10 -43 -38 15 -37 -6 1 -56
26 -35 39 -29 31 15 -2 10 6 11 18 4 11 -7 29 11 40 40 25 67 25 96 0 80 -26
-16 -25 -3 2 57 40 86 -59 323 -103 251 -14 -22 -22 -23 -42 -3 -51 51 -80 30
-48 -34z"/>
<path d="M5955 2718 c-48 -27 -44 -78 5 -78 29 0 40 13 40 50 0 57 2 56 -45
28z"/>
<path d="M2502 2610 c-36 -73 -55 -90 -98 -91 -86 -1 -196 -108 -129 -125 29
-8 29 -10 -5 -12 -22 -1 -52 17 -67 40 -19 31 -38 39 -75 29 -33 -8 -52 -3
-60 17 -11 30 -55 24 -102 -13 -19 -15 -18 -26 5 -48 16 -17 29 -45 29 -62 0
-26 -5 -28 -24 -9 -13 13 -33 24 -45 23 -12 0 -3 -14 18 -30 30 -23 41 -58 44
-147 5 -114 67 -262 110 -262 35 0 42 62 9 97 -34 38 -40 79 -20 131 26 67 58
31 58 -63 0 -64 8 -93 24 -90 14 2 34 -13 46 -35 12 -22 59 -57 106 -78 80
-37 154 -104 154 -139 0 -9 23 -28 50 -43 28 -15 50 -34 50 -43 0 -10 28 -17
62 -17 42 0 59 -8 53 -25 -6 -16 12 -27 51 -29 34 -3 88 -30 122 -60 33 -31
48 -40 34 -21 -23 30 -22 35 6 35 17 0 32 -8 32 -17 0 -23 195 -9 264 19 30
12 91 19 135 15 51 -5 84 1 90 17 5 13 39 32 75 42 36 10 64 29 61 42 -3 13
10 29 30 37 19 7 72 52 118 99 82 86 155 110 200 65 32 -32 92 35 76 84 -7 21
-3 50 8 64 11 13 20 52 19 86 -1 34 4 70 11 82 11 18 -35 93 -103 163 -41 42
-74 -2 -44 -58 14 -26 15 -39 3 -32 -11 7 -25 4 -32 -6 -17 -28 41 -42 69 -15
20 18 23 17 11 -3 -8 -14 -2 -46 13 -70 80 -129 22 -151 -424 -164 -148 -4
-315 -13 -370 -21 -55 -8 -113 -13 -130 -13 -300 14 -588 24 -653 23 -137 -1
-200 89 -155 221 6 17 9 33 8 38 -2 4 7 14 20 22 12 8 25 28 27 46 3 17 27 50
54 74 27 24 38 37 24 30 -35 -17 -31 20 5 50 19 16 49 19 85 9 30 -9 64 -13
74 -11 11 3 31 -11 45 -30 14 -20 26 -27 26 -17 0 11 7 9 15 -3 8 -12 42 -28
74 -36 l60 -15 -40 44 -39 45 53 -13 c29 -7 68 -18 85 -25 48 -18 39 25 -12
61 -57 40 -136 41 -136 2 0 -33 -59 -20 -85 18 -21 31 -18 128 6 172 11 22 13
39 3 39 -9 0 -37 -40 -62 -90z m-412 -250 c7 -11 30 -20 51 -20 53 0 51 -6
-43 -104 l-82 -86 6 60 c4 33 0 71 -9 85 -10 16 -3 26 21 27 21 0 26 5 11 11
-14 6 -25 19 -25 29 0 24 55 23 70 -2z m1534 -494 c-5 -26 -26 -56 -46 -67
-21 -11 -38 -34 -38 -51 0 -18 -15 -28 -35 -25 -19 3 -56 -7 -82 -21 -26 -14
-71 -21 -99 -16 -29 6 -63 -2 -79 -18 -33 -33 -185 -38 -185 -6 0 16 -8 16
-28 -1 -36 -29 -171 -7 -186 31 -6 18 -27 23 -57 16 -33 -8 -61 2 -95 35 -27
26 -66 57 -86 69 -21 12 -41 43 -45 69 -6 40 -2 43 23 22 17 -14 35 -17 42 -7
22 36 139 23 168 -19 21 -29 35 -34 50 -19 48 48 150 23 188 -46 21 -37 22
-37 44 4 20 37 18 41 -13 31 -28 -10 -30 -8 -11 13 39 42 187 46 217 5 24 -33
28 -33 66 3 23 20 54 32 69 26 16 -6 53 6 83 25 72 48 149 17 135 -53z"/>
<path d="M2892 2668 c-17 -44 -16 -45 23 -38 19 4 46 8 60 8 14 1 25 14 25 28
0 37 -94 39 -108 2z"/>
<path d="M4228 2655 c-24 -30 -47 -49 -53 -43 -5 5 -16 -5 -23 -23 -9 -24 -4
-30 18 -22 33 13 42 -17 10 -37 -11 -7 -20 -32 -20 -56 -1 -34 -5 -37 -19 -16
-12 19 -17 -3 -16 -67 1 -57 -9 -101 -24 -111 -15 -8 -20 -26 -12 -38 7 -12 2
-22 -12 -22 -14 0 -9 -12 12 -27 29 -21 31 -30 11 -43 -19 -12 -22 -8 -10 12
12 21 10 23 -8 6 -39 -36 -7 -126 40 -113 21 5 38 22 38 38 0 16 14 49 31 75
33 52 66 149 81 242 6 33 18 85 28 116 13 38 12 51 -3 42 -14 -8 -13 2 2 30
13 24 14 42 3 42 -10 0 -22 15 -26 34 -5 29 -13 26 -48 -19z"/>
<path d="M3540 2626 c-1 -94 -28 -116 -144 -117 -118 -2 -269 -73 -181 -85 23
-4 60 3 82 14 32 17 41 14 49 -20 9 -35 17 -38 53 -19 22 12 41 16 41 9 0 -8
32 18 70 58 70 72 95 176 50 204 -11 7 -20 -12 -20 -44z"/>
<path d="M5445 2503 c-11 -7 -24 -35 -28 -63 -8 -54 47 -77 100 -43 54 36 -17
140 -72 106z"/>
<path d="M4339 2325 c-13 -41 -35 -102 -49 -135 -39 -91 -55 -137 -63 -173 -3
-18 -38 -105 -77 -193 -87 -199 -93 -252 -18 -182 118 111 255 423 280 638 16
144 -32 174 -73 45z"/>
<path d="M3404 2351 c-44 -25 -61 -67 -22 -56 10 3 18 -8 18 -25 0 -16 10 -30
22 -30 12 0 17 14 10 31 -6 17 -3 26 7 20 10 -7 24 -3 30 7 6 11 2 25 -9 32
-11 7 -15 21 -9 31 14 23 12 22 -47 -10z"/>
<path d="M5971 2361 c-16 -26 -6 -142 13 -154 9 -5 16 32 16 82 0 90 -7 108
-29 72z"/>
<path d="M1801 2201 c18 -146 147 -379 188 -338 13 12 -163 445 -184 452 -10
3 -12 -44 -4 -114z"/>
<path d="M2460 2270 c-14 -16 -32 -25 -41 -19 -32 20 -44 -38 -12 -61 18 -13
27 -30 19 -37 -7 -7 -2 -13 11 -13 13 0 23 18 23 40 0 43 29 54 51 18 14 -22
48 11 49 46 0 35 -76 55 -100 26z"/>
<path d="M2700 2279 c0 -12 -8 -16 -18 -10 -9 6 -22 -8 -28 -31 -9 -34 -4 -40
27 -32 30 8 39 0 39 -33 0 -67 85 -97 162 -59 48 24 56 35 35 50 -21 15 -19
17 8 9 61 -20 121 16 124 74 3 62 -39 72 -55 13 -11 -44 -135 -40 -191 6 -37
30 -103 38 -103 13z"/>
<path d="M3194 2287 c-21 -20 5 -46 35 -35 15 6 40 -8 56 -30 24 -36 33 -38
65 -15 41 31 26 72 -25 68 -19 -1 -54 4 -76 12 -23 7 -48 8 -55 0z"/>
<path d="M3128 2195 c2 -34 -14 -50 -63 -64 -81 -24 -83 -44 -4 -61 72 -16 75
-14 87 51 5 27 11 54 13 59 2 6 2 18 0 28 -2 10 11 7 28 -7 17 -15 31 -17 31
-6 0 19 -45 45 -78 45 -8 0 -14 -20 -14 -45z"/>
<path d="M1 1915 l2 -225 113 -91 c118 -93 147 -152 71 -145 -32 4 -45 -9 -54
-55 -7 -33 -25 -59 -41 -59 -49 0 -54 32 -12 70 45 41 49 61 20 96 -11 13 -37
47 -58 74 -38 50 -39 48 -41 -354 -1 -373 14 -496 49 -385 8 23 39 71 70 106
32 36 64 92 72 124 l14 59 -46 -40 -46 -40 28 45 c15 25 36 45 45 45 10 0 7
13 -6 29 -28 34 -12 71 30 71 16 0 29 -19 29 -41 0 -65 69 -41 76 26 5 39 -2
55 -25 55 -38 0 -38 -2 0 90 31 74 33 75 117 63 131 -18 173 48 88 137 -54 56
-93 45 -81 -21 10 -51 -76 -7 -242 125 -148 118 -189 297 -68 295 91 -2 91 -7
3 91 -103 113 -108 106 -107 -145z"/>
<path d="M289 1890 c50 -38 96 -70 101 -70 6 0 37 -29 70 -65 l59 -65 0 55 c1
30 -7 55 -17 55 -9 0 -71 36 -137 80 -148 99 -202 106 -76 10z"/>
<path d="M4028 1911 c-6 -16 -3 -44 8 -62 16 -29 22 -25 40 29 23 65 -24 98
-48 33z"/>
<path d="M4380 1907 c0 -21 -26 -91 -58 -157 -165 -339 -223 -482 -244 -605
-12 -74 -44 -199 -70 -278 -26 -79 -50 -162 -54 -184 -3 -23 -13 -48 -20 -56
-8 -7 -14 -35 -14 -62 0 -26 -8 -42 -18 -36 -10 6 -23 -4 -30 -21 -8 -20 -27
-29 -51 -22 -23 5 -43 -2 -50 -20 -18 -46 -13 -53 19 -26 25 20 30 19 30 -8 0
-36 -39 -113 -70 -138 -11 -9 -2 -13 20 -10 31 5 40 -6 42 -49 2 -53 -3 -59
-57 -63 -14 -1 -54 -31 -90 -67 -35 -36 -71 -66 -80 -66 -96 -7 -194 -22 -202
-29 -24 -24 390 -9 416 15 22 20 24 20 12 -1 -13 -22 -8 -22 27 -1 23 15 47
42 53 60 6 18 33 48 60 66 30 20 49 51 49 81 0 30 11 50 29 50 48 0 91 79 71
130 -10 25 -11 53 -4 61 8 9 -20 -9 -61 -40 -73 -54 -95 -91 -55 -91 11 0 20
-8 20 -18 0 -19 -113 -15 -134 5 -7 7 -2 13 11 13 13 0 22 7 21 15 -8 49 6 72
22 35 15 -34 17 -35 19 -5 0 19 14 35 29 35 18 0 25 14 18 38 -11 43 24 74 46
39 9 -15 5 -18 -12 -7 -17 11 -21 8 -12 -7 21 -34 52 -8 53 43 0 42 2 41 41
-11 23 -30 52 -55 65 -55 13 0 10 9 -7 20 -26 16 -26 19 -1 20 23 0 24 5 5 24
-13 13 -24 38 -24 55 1 27 3 27 20 1 16 -24 19 -22 20 13 0 24 5 60 12 80 8
27 6 30 -7 11 -13 -18 -18 -5 -17 43 1 38 10 68 21 66 36 -6 34 64 -3 73 -20
5 -6 10 30 12 48 1 62 -5 52 -23 -11 -19 -8 -20 11 -2 30 28 11 67 -31 67 -17
0 -25 9 -18 20 7 11 4 20 -7 20 -34 0 -11 67 29 82 21 8 27 16 14 17 -14 0
-34 18 -45 39 -18 33 -14 38 29 33 50 -6 70 19 27 33 -15 5 -12 19 9 40 18 17
27 37 20 44 -7 6 -2 12 12 12 14 0 20 15 15 35 -6 19 -16 76 -24 125 l-14 90
46 -40 45 -40 -12 65 c-8 40 -5 65 8 65 11 0 15 9 8 20 -47 75 222 -31 335
-133 84 -75 81 -74 169 -49 45 13 67 12 75 -5 8 -17 14 -17 22 1 7 13 23 19
37 14 14 -5 25 3 25 19 0 16 -12 25 -27 19 -19 -8 -22 0 -12 27 13 35 11 35
-34 5 -59 -39 -210 -12 -192 35 6 15 2 28 -9 30 -113 14 -250 115 -199 147 12
7 14 -2 6 -24 -12 -33 -10 -33 24 -6 28 23 39 24 45 5 5 -14 23 -25 42 -25 28
1 29 3 4 19 -17 10 -24 25 -16 33 8 7 26 4 41 -8 14 -12 64 -28 110 -36 46 -7
84 -20 84 -28 0 -8 20 -14 45 -14 127 1 255 -31 233 -59 -22 -26 -20 -29 23
-34 11 -2 29 -16 39 -33 17 -26 19 -26 20 1 0 17 -11 42 -24 55 -19 19 -17 24
8 24 33 0 93 -59 63 -62 -14 -2 64 -26 147 -45 14 -3 32 -13 40 -22 9 -10 3
-11 -14 -3 -16 8 -13 1 8 -16 29 -23 45 -26 66 -9 30 26 117 -28 265 -164 50
-45 93 -73 97 -61 4 12 20 22 36 22 149 0 -192 307 -460 414 -67 27 -159 65
-204 86 -45 20 -180 61 -300 91 -120 29 -290 71 -378 94 -258 65 -250 64 -250
22z m-414 -1666 c-5 -17 -13 -43 -18 -57 -4 -16 -18 -20 -33 -11 -14 9 -34 16
-45 16 -22 1 -30 17 -30 62 0 22 18 29 68 26 51 -4 65 -13 58 -36z"/>
<path d="M1804 1759 c-195 -97 -378 -360 -394 -564 -7 -97 -10 -99 -245 -152
-102 -23 -255 -73 -340 -112 -148 -66 -439 -183 -695 -281 -129 -49 -151 -83
-108 -164 19 -36 37 -45 67 -36 93 27 134 31 121 11 -7 -12 -3 -21 8 -21 11 0
25 9 32 20 17 27 51 25 45 -3 -3 -12 15 -24 40 -26 26 -3 45 7 45 22 0 15 -11
25 -25 22 -14 -3 -25 9 -25 25 0 17 15 30 33 30 18 0 51 17 73 36 35 32 40 32
51 4 7 -19 4 -27 -7 -20 -11 7 -20 -4 -20 -24 0 -27 18 -37 70 -41 39 -3 70 4
70 15 0 11 13 20 28 20 18 0 25 14 18 40 -11 42 117 63 142 23 5 -9 57 -12
114 -8 72 6 109 0 120 -18 13 -20 17 -21 18 -2 0 14 18 25 39 25 73 0 241 -43
231 -60 -5 -9 4 -21 22 -28 43 -16 48 -15 48 9 0 12 -11 15 -25 7 -14 -8 -18
-7 -9 4 9 9 27 18 40 18 29 0 173 95 174 113 0 8 -34 4 -75 -7 -72 -20 -341
-13 -865 22 -193 12 -205 16 -151 39 36 15 90 20 135 12 42 -7 76 -5 76 4 0 9
27 18 60 19 33 1 60 -6 60 -16 0 -10 -7 -14 -16 -9 -9 6 -29 2 -45 -8 -24 -15
-24 -18 5 -19 61 0 136 38 136 71 0 17 9 26 20 19 11 -7 20 -2 20 11 0 14 17
19 43 13 24 -7 55 1 71 17 16 16 48 29 72 29 24 0 88 14 141 30 54 16 105 25
113 20 28 -17 56 39 49 100 l-6 60 58 -65 c63 -70 90 -83 72 -35 -7 16 -2 30
9 30 11 0 15 9 8 21 -36 56 -29 141 10 129 21 -7 56 -3 76 8 40 21 124 -42
124 -94 0 -25 -88 -54 -115 -37 -9 5 -16 -7 -16 -28 0 -24 21 -46 58 -59 69
-24 121 -25 63 -1 -39 16 -39 17 -2 32 39 16 45 11 153 -128 28 -37 35 -40 21
-11 -11 24 -15 48 -8 55 7 7 2 13 -12 13 -13 0 -19 9 -12 20 7 11 -1 26 -19
32 -17 7 -26 20 -20 30 6 10 -2 13 -18 6 -16 -6 -36 0 -44 14 -10 15 -7 19 8
10 34 -21 28 10 -17 83 -22 36 -32 65 -22 65 9 0 12 23 7 50 -6 28 0 50 12 50
12 0 17 13 11 29 -14 36 32 101 71 101 16 0 35 23 43 50 8 28 15 38 16 23 1
-14 13 -22 27 -17 51 18 95 -26 95 -95 0 -43 11 -71 32 -79 18 -7 27 -25 21
-42 -7 -17 -5 -30 3 -30 9 0 15 -18 15 -40 0 -24 -10 -37 -24 -32 -15 6 -21
-1 -14 -19 6 -17 26 -27 44 -24 24 4 33 -10 32 -50 -1 -30 7 -55 16 -55 10 0
3 -15 -16 -34 -31 -31 -31 -35 0 -57 18 -14 30 -32 28 -42 -5 -19 22 -253 37
-317 5 -22 11 -82 14 -134 3 -51 15 -105 26 -120 11 -14 19 -51 18 -81 -2 -30
7 -55 19 -55 12 0 47 -27 79 -60 64 -66 90 -75 90 -30 0 17 10 30 21 30 12 0
16 -8 10 -19 -6 -10 -1 -25 12 -33 14 -8 18 -6 10 8 -8 11 -5 27 7 34 11 7 20
-2 20 -19 0 -23 21 -31 80 -31 44 0 80 9 80 20 0 11 -10 20 -21 20 -12 0 -17
8 -11 17 6 9 -2 34 -18 55 -16 22 -29 27 -29 13 -2 -66 -161 33 -161 101 0 17
-9 34 -19 37 -11 4 -25 43 -32 87 -7 44 -17 87 -22 95 -33 53 24 0 74 -70 34
-47 68 -85 75 -85 8 0 11 -9 7 -20 -3 -11 0 -13 9 -5 19 19 24 115 7 115 -63
0 -189 305 -229 554 -37 232 -308 857 -381 880 -12 4 -77 -21 -145 -55z m4
-308 c30 -46 30 -49 0 -37 -21 8 -46 -4 -68 -34 -35 -46 -80 -41 -80 10 0 21
89 110 110 110 3 0 20 -22 38 -49z"/>
<path d="M2232 1705 c-32 -31 -10 -85 35 -85 41 0 48 -10 48 -75 0 -42 28
-132 63 -205 l63 -130 -13 90 c-36 257 -136 465 -196 405z"/>
<path d="M3894 1648 c-27 -27 -15 -108 16 -108 32 0 36 27 13 86 -8 20 -21 30
-29 22z"/>
<path d="M4426 1465 c6 -19 25 -71 42 -115 17 -44 31 -113 31 -154 1 -40 10
-79 21 -86 12 -7 15 -21 9 -31 -6 -11 0 -19 14 -19 14 0 8 -12 -12 -27 -23
-16 -33 -40 -25 -59 7 -18 4 -38 -6 -44 -27 -17 -17 -96 18 -138 28 -34 28
-37 2 -28 -25 9 -30 -4 -26 -67 2 -51 -6 -83 -23 -89 -32 -13 -19 -82 27 -136
30 -36 30 -37 -11 -15 -45 23 -79 -12 -69 -72 2 -14 -7 -25 -20 -25 -17 0 -17
-7 0 -27 12 -16 17 -45 11 -65 -11 -34 -9 -34 15 2 34 52 82 62 71 16 -4 -20
-18 -34 -31 -31 -16 3 -17 -10 -3 -47 10 -28 14 -60 8 -70 -6 -10 -2 -18 10
-18 11 0 21 9 21 20 0 11 11 18 25 15 13 -3 27 17 31 43 6 37 0 45 -24 35 -35
-13 -44 17 -12 37 36 22 21 70 -21 70 -23 0 -36 9 -29 20 7 12 21 15 31 9 11
-6 20 5 20 25 1 20 5 70 9 112 5 41 0 70 -10 64 -9 -6 -22 -2 -29 8 -6 10 2
23 17 29 16 6 34 -2 40 -18 6 -16 22 -28 36 -27 19 1 19 4 2 11 -13 5 -19 22
-13 37 5 15 -6 31 -27 36 -32 8 -33 10 -1 12 30 2 34 19 27 127 -5 79 -2 107
8 75 17 -54 27 -38 21 35 -2 25 6 45 19 45 13 0 16 11 7 25 -22 36 -27 177 -5
164 10 -7 10 10 -1 38 -10 27 -12 56 -5 64 8 9 3 9 -11 1 -17 -10 -25 1 -25
32 0 51 -71 197 -108 221 -38 25 -57 17 -46 -20z"/>
<path d="M3302 1382 c-49 -20 -79 -42 -67 -49 12 -8 28 -5 34 6 7 10 24 15 38
9 15 -5 38 4 52 21 14 17 35 25 46 18 12 -8 15 -3 7 10 -8 13 -16 22 -18 22
-2 -1 -44 -17 -92 -37z"/>
<path d="M3820 1390 c-14 -17 -21 -36 -15 -42 6 -6 2 -43 -9 -82 -25 -91 -35
-140 -49 -226 l-11 -70 34 60 c29 51 40 96 49 195 0 8 17 16 36 17 21 1 25 5
10 11 -36 15 -31 41 17 89 35 35 37 46 15 60 -38 24 -48 22 -77 -12z"/>
<path d="M5146 1258 c24 -39 94 -43 94 -6 0 13 -26 27 -58 32 -50 7 -55 4 -36
-26z"/>
<path d="M2744 1248 c-15 -16 -34 -24 -43 -19 -9 6 -21 -7 -27 -29 -7 -27 -3
-35 13 -26 13 8 39 12 58 9 19 -3 35 4 35 16 0 11 17 21 39 21 21 0 45 10 53
23 10 16 -2 20 -38 13 -29 -6 -55 -3 -58 5 -3 8 -18 2 -32 -13z"/>
<path d="M5371 1233 c-35 -26 -35 -27 6 -38 47 -12 78 18 49 47 -11 11 -33 8
-55 -9z"/>
<path d="M3100 1200 c0 -11 -2 -26 -5 -33 -3 -7 11 -15 30 -18 23 -4 35 8 35
33 0 21 -13 38 -30 38 -16 0 -30 -9 -30 -20z"/>
<path d="M5757 1110 c-11 -10 -89 -26 -141 -29 -23 0 -31 -12 -23 -32 7 -17
25 -26 41 -20 16 6 46 2 66 -9 53 -28 100 -4 100 52 0 44 -20 62 -43 38z"/>
<path d="M3607 1045 c-18 -12 -18 -23 0 -47 20 -28 28 -28 49 -5 17 17 18 27
4 27 -12 0 -17 9 -10 20 14 23 -10 26 -43 5z"/>
<path d="M5918 992 c-67 -29 -179 -124 -164 -140 7 -6 -2 -12 -20 -12 -18 0
-43 -19 -55 -42 -16 -30 -16 -39 -1 -29 12 7 37 5 56 -6 66 -37 254 120 242
202 -5 44 -11 46 -58 27z"/>
<path d="M5506 950 c-23 -16 -57 -25 -74 -18 -18 7 -32 2 -32 -10 0 -12 -9
-22 -19 -22 -11 0 -14 16 -7 35 12 31 9 32 -21 7 -27 -22 -29 -33 -8 -58 15
-20 16 -26 2 -18 -13 8 -28 0 -34 -16 -7 -17 -23 -30 -38 -30 -25 0 -87 -78
-80 -103 3 -11 -171 -91 -210 -97 -8 -1 -37 -22 -63 -46 -27 -24 -42 -33 -34
-19 8 14 4 25 -9 25 -16 0 -20 -20 -12 -61 10 -51 5 -63 -35 -78 -50 -19 -83
-56 -66 -74 12 -12 107 47 159 98 19 19 45 35 56 35 12 0 35 14 52 30 27 27
25 30 -15 30 l-44 0 46 40 c55 48 68 50 53 10 -20 -52 25 -33 115 50 47 44 95
80 106 80 11 0 43 25 71 55 75 79 110 105 139 105 15 0 38 18 51 40 30 47 10
51 -49 10z"/>
<path d="M2800 889 c0 -73 37 -107 89 -82 58 27 79 86 37 102 -59 22 -126 12
-126 -20z"/>
<path d="M2427 839 c2 -16 29 -72 59 -123 29 -51 54 -99 54 -107 0 -7 27 -47
60 -89 33 -42 60 -86 60 -98 0 -12 7 -20 15 -17 21 7 125 -76 125 -98 0 -24
83 -95 117 -100 30 -5 162 -141 149 -154 -4 -4 6 -13 22 -20 17 -6 36 -2 43 9
8 13 22 12 39 -2 19 -16 30 -16 41 1 10 17 18 16 31 -4 12 -20 22 -21 39 -4
17 17 17 26 -1 37 -27 17 31 90 73 90 15 0 27 14 27 30 0 17 14 30 31 30 18 0
25 9 17 23 -8 13 -3 19 14 13 15 -5 39 1 52 12 56 49 81 68 122 90 41 22 62
65 29 60 -60 -10 -111 4 -91 24 13 13 18 35 12 50 -6 16 0 28 12 28 12 0 20
-7 17 -15 -3 -8 4 -17 15 -20 11 -3 21 2 22 10 3 32 37 96 60 115 13 11 30 43
38 70 l15 50 -53 -48 c-28 -27 -52 -61 -52 -75 0 -15 -9 -27 -20 -27 -24 0
-100 -73 -88 -85 4 -5 -37 -39 -92 -77 -55 -37 -114 -97 -131 -133 -71 -150
-167 -155 -269 -12 -42 59 -99 107 -158 134 -140 65 -204 118 -302 253 -146
199 -158 213 -153 179z"/>
<path d="M3313 847 c-31 -32 -13 -83 27 -73 44 12 56 86 13 86 -14 0 -32 -6
-40 -13z"/>
<path d="M1235 752 c-19 -14 -35 -32 -35 -39 0 -25 44 -12 95 27 43 34 45 40
13 39 -21 0 -54 -12 -73 -27z"/>
<path d="M5880 764 c0 -9 -31 -27 -70 -41 -38 -14 -70 -35 -70 -45 0 -11 -9
-15 -20 -8 -11 7 -14 -1 -7 -20 10 -26 2 -30 -36 -20 -39 10 -49 4 -52 -31 -1
-24 -17 -59 -34 -78 -43 -47 -40 -55 29 -65 42 -6 60 -1 60 19 0 15 -7 23 -17
17 -13 -8 -15 37 -5 85 1 5 17 -4 36 -20 29 -23 32 -23 22 5 -7 17 -2 31 11
32 13 0 68 21 123 47 55 26 111 45 125 42 15 -3 25 16 25 46 0 43 -9 51 -60
51 -33 0 -60 -7 -60 -16z"/>
<path d="M3319 618 c-26 -48 -14 -68 30 -51 33 13 43 93 12 93 -11 0 -30 -19
-42 -42z"/>
<path d="M2074 575 c-30 -23 -30 -28 2 -71 l35 -45 0 70 c-1 39 -2 71 -2 71
-1 0 -16 -11 -35 -25z"/>
<path d="M5490 521 c34 -16 35 -18 5 -20 -34 -1 -54 -101 -20 -101 73 2 87
126 15 135 -40 5 -40 5 0 -14z"/>
<path d="M1628 411 c-9 -38 -3 -64 20 -87 31 -31 32 -28 23 44 -13 98 -25 111
-43 43z"/>
<path d="M5380 420 c-12 -22 -35 -40 -51 -40 -16 0 -29 -13 -29 -28 0 -18 -14
-25 -39 -18 -28 7 -37 1 -33 -27 3 -20 27 -41 54 -47 32 -8 40 -17 23 -27 -14
-8 -25 -26 -25 -38 0 -12 12 -6 28 15 15 21 24 48 20 59 -13 36 64 121 82 91
11 -17 8 -21 -7 -12 -13 8 -23 5 -23 -6 0 -30 41 -49 61 -29 11 11 6 40 -10
71 -15 29 -22 58 -16 65 7 6 6 11 -1 11 -7 0 -22 -18 -34 -40z"/>
<path d="M4629 393 c1 -77 38 -103 82 -59 35 35 35 36 -2 43 -21 4 -48 21 -59
37 -18 24 -22 20 -21 -21z"/>
<path d="M405 367 c-14 -6 -25 -19 -25 -30 0 -11 10 -13 21 -6 12 7 20 1 18
-14 -10 -70 5 -83 33 -32 40 75 20 109 -47 82z"/>
<path d="M5978 335 c-2 -14 -1 -36 1 -50 1 -14 -12 -25 -29 -25 -18 0 -27 -8
-21 -19 6 -10 3 -24 -9 -31 -11 -7 -20 -30 -20 -51 0 -22 -13 -39 -30 -39 -16
0 -30 -10 -30 -21 0 -12 -7 -17 -16 -12 -19 12 -44 -4 -81 -52 -26 -33 -18
-35 113 -35 l142 0 0 180 c0 151 -12 244 -20 155z"/>
<path d="M5123 215 c-28 -28 -31 -135 -4 -135 11 0 15 13 9 29 -8 20 6 34 40
42 30 8 52 27 52 47 0 39 -64 50 -97 17z"/>
<path d="M4390 162 c5 -37 0 -58 -11 -51 -10 6 -19 -9 -19 -33 0 -43 1 -43 40
-8 27 25 36 50 28 78 -21 72 -46 81 -38 14z"/>
<path d="M1828 110 c1 -42 12 -70 27 -70 14 0 25 -9 25 -20 0 -11 18 -20 40
-20 47 0 48 6 15 65 -71 128 -109 144 -107 45z"/>
<path d="M4957 64 c-15 -21 -40 -43 -57 -49 -16 -7 9 -13 56 -13 78 -2 86 2
80 41 -8 58 -46 68 -79 21z"/>
</g>
</svg>
